<svg id="Group_21694" data-name="Group 21694" xmlns="http://www.w3.org/2000/svg" width="95" height="45.125" viewBox="0 0 95 45.125">
  <g id="Group_16063" data-name="Group 16063" transform="translate(0)">
    <path id="Path_30491" data-name="Path 30491" d="M1218.933,788.692l-.155.034a9.645,9.645,0,0,1-4.429.025,6.431,6.431,0,0,1-3.469-2.161,6.238,6.238,0,0,1-1.267-2.689,8.9,8.9,0,0,1-.2-1.624l5.012-1.984a6.44,6.44,0,0,0,1.486,3.312,2.106,2.106,0,0,0,1.882.6l.058-.013a2.357,2.357,0,0,0,1.509-1.087,1.877,1.877,0,0,0,.3-1.49l-.075-.248a4.382,4.382,0,0,0-2.133-2.192,20.648,20.648,0,0,0-3.385-1.325,21.126,21.126,0,0,1-4.208-1.733,6.558,6.558,0,0,1-2.94-3.356q-.125-.379-.211-.767a6.748,6.748,0,0,1,.3-3.89,7.681,7.681,0,0,1,2.808-3.673,11.843,11.843,0,0,1,4.146-1.854l.605-.114a7.618,7.618,0,0,1,4.59.611,7.453,7.453,0,0,1,3.315,3.213,5.607,5.607,0,0,1,.512,1.392,5.694,5.694,0,0,1-.187,3.011l-5.905.8a4.8,4.8,0,0,0,.273-2.44,1.816,1.816,0,0,0-.23-.58,2,2,0,0,0-1.72-1.063,2.664,2.664,0,0,0-.72.058,2.8,2.8,0,0,0-2.161,3.1l.031.136a2.248,2.248,0,0,0,1.334,1.434,26.728,26.728,0,0,0,3.095,1.207,28.184,28.184,0,0,1,4.628,1.884,7.637,7.637,0,0,1,3.427,3.35,7.85,7.85,0,0,1,.6,1.7,5.537,5.537,0,0,1-.06,2.76,7.046,7.046,0,0,1-2.338,3.589A9.927,9.927,0,0,1,1218.933,788.692Z" transform="translate(-1206.553 -755.98)" fill="#ffbc3e"/>
    <path id="Path_30492" data-name="Path 30492" d="M1305.708,755.713a3.606,3.606,0,0,1-2.092-.324,4.585,4.585,0,0,1-2.083-2.511,45.069,45.069,0,0,1-1.757-6.831q-.824-4.376-1.492-8.634c-.323-1.987-1.024-8.171-1.273-9.54l7.632-1.489c.179,1.82.735,8.44.837,10.845q.145,3.129.378,6.165.14,1.826.359,3.359.14.983.323,1.84.331,1.337,1.1,1.228l.059-.008a2.526,2.526,0,0,0,1.568-1.387,7.4,7.4,0,0,0,.869-3.193c.06-.142.136-.22.228-.233l.062.011a.376.376,0,0,1,.334.233,5.04,5.04,0,0,1,.371,1.331,8.9,8.9,0,0,1-.209,3.18,8.79,8.79,0,0,1-2.183,4.384,6.1,6.1,0,0,1-2.5,1.46Z" transform="translate(-1280.19 -726.383)" fill="#ffbc3e"/>
    <path id="Path_30493" data-name="Path 30493" d="M1378.661,788.751a3.629,3.629,0,0,1-2.279-.582,5.189,5.189,0,0,1-1.865-3.042,7.5,7.5,0,0,1-1.678,2.854,4.272,4.272,0,0,1-2.881,1.305,5.388,5.388,0,0,1-4.245-1.953,11.6,11.6,0,0,1-2.158-4.663,28.368,28.368,0,0,1-.537-3.618q-.079-.972-.1-1.949a30.8,30.8,0,0,1,.274-4.661l6.114-.29a14.644,14.644,0,0,0-.213,2.737q-.008,1.352.109,2.771l.078.953a17.7,17.7,0,0,0,.609,3.279q.43,1.356,1.044,1.307.633-.051,1.1-.949a7.908,7.908,0,0,0,.72-2.152,13.6,13.6,0,0,0,.348-2.553,10.593,10.593,0,0,0,.017-1.724l-.552-4.047,7.043-.618.29,10.057.019.233q.128,1.556.912,1.631l.2,0a2.348,2.348,0,0,0,1.542-1.121,6.873,6.873,0,0,0,1.169-3.224q.1-.2.241-.215l.061.015a.375.375,0,0,1,.319.249,4.421,4.421,0,0,1,.308,1.326,10.139,10.139,0,0,1-2.868,7.274,6.177,6.177,0,0,1-2.721,1.312Z" transform="translate(-1333.842 -762.824)" fill="#ffbc3e"/>
    <path id="Path_30494" data-name="Path 30494" d="M1477.808,786.4l-.349-17.432,7.511-.035-.1,1.646a4.916,4.916,0,0,1,3.507-1.245,9.23,9.23,0,0,1,3.259.775l-1.792,5.837a4.756,4.756,0,0,0-2.342-.872,1.993,1.993,0,0,0-1.627.735q-1.349,1.537-1.759,6.136l-.25,3.749Z" transform="translate(-1427.082 -761.159)" fill="#ffbc3e"/>
    <path id="Path_30495" data-name="Path 30495" d="M1552.2,789.6l1.1-17.075,7.487.576-.236,1.6a4.986,4.986,0,0,1,3.6-.933,9.351,9.351,0,0,1,3.184,1.022l-2.269,5.562a4.8,4.8,0,0,0-2.263-1.043,2.015,2.015,0,0,0-1.682.587q-1.471,1.393-2.261,5.857l-.56,3.645Z" transform="translate(-1487.923 -763.938)" fill="#ffbc3e"/>
    <path id="Path_30496" data-name="Path 30496" d="M1612.665,811.722l4.573-23.971,6.923,1.262-.217,1.05a5.8,5.8,0,0,1,3.439-.26,5.324,5.324,0,0,1,3.073,1.9,7.694,7.694,0,0,1,1.539,3.545,11.07,11.07,0,0,1-.158,4.383,10.924,10.924,0,0,1-1.793,4.094,7.532,7.532,0,0,1-2.934,2.482,5.384,5.384,0,0,1-3.521.353,5.816,5.816,0,0,1-2.893-1.612l-1.512,6.948Zm10.838-9.642a1.378,1.378,0,0,0,1.381-.522,5.784,5.784,0,0,0,1-1.829,8.475,8.475,0,0,0,.282-.975,9.3,9.3,0,0,0,.2-1.339,5.84,5.84,0,0,0-.181-2.077,1.419,1.419,0,0,0-1.04-1.071,1.476,1.476,0,0,0-1.3.255,2.955,2.955,0,0,0-.916,1.259,10.591,10.591,0,0,0-.622,1.936,9.442,9.442,0,0,0-.249,2,3.589,3.589,0,0,0,.339,1.563A1.594,1.594,0,0,0,1623.5,802.081Z" transform="translate(-1537.149 -776.656)" fill="#ffbc3e"/>
  </g>
  <path id="Path_30497" data-name="Path 30497" d="M1633.337,854.481s-1.789,7.212-6.174,7.154-5.019-1.269-5.019-1.269l-1.269,6.75-6.751-.635,6.981,1.269,1.558-6.058a13.418,13.418,0,0,0,4.442.635C1629.644,862.27,1632.3,859.9,1633.337,854.481Z" transform="translate(-1538.337 -830.883)" fill="#ff6d40"/>
  <path id="Path_30498" data-name="Path 30498" d="M1565.319,815.1s-3.346-2.193-4.385,2.019a70.44,70.44,0,0,0-1.442,7.558l-6.751.173,7.155.808,1.558-8.308s1.1-3.058,3.635-1.615Z" transform="translate(-1488.363 -798.277)" fill="#ff6d40"/>
  <path id="Path_30499" data-name="Path 30499" d="M1492.475,806.764s-3.57-1.806-4.132,2.5a70.406,70.406,0,0,0-.59,7.672l-6.689.925,7.2,0,.622-8.43s.748-3.161,3.432-2.011Z" transform="translate(-1430.014 -791.642)" fill="#ff6d40"/>
  <path id="Path_30500" data-name="Path 30500" d="M1425.636,852.42s3.058,7.1,9.347-1.039c0,0-2.712,5.02-5.308,4.558A5.017,5.017,0,0,1,1425.636,852.42Z" transform="translate(-1384.894 -828.304)" fill="#ff6d40"/>
  <path id="Path_30501" data-name="Path 30501" d="M1375.063,858.553s2.263,7.389,9.4-.009c0,0-3.245,4.693-5.775,3.95A5.016,5.016,0,0,1,1375.063,858.553Z" transform="translate(-1343.726 -834.141)" fill="#ff6d40"/>
  <path id="Path_30502" data-name="Path 30502" d="M1317.958,864.855a4.29,4.29,0,0,0,4.462,3.154,6.775,6.775,0,0,0,5.693-4.846s-1.615,5.693-5.462,5.769S1317.958,864.855,1317.958,864.855Z" transform="translate(-1297.241 -837.916)" fill="#ff6d40"/>
  <path id="Path_30503" data-name="Path 30503" d="M1231.14,871.141a10.4,10.4,0,0,1-10.77,6.616c-8.308-.615-6.769-7.154-6.769-7.154l-1.077.615s-.538,7,7.923,7.308A10.671,10.671,0,0,0,1231.14,871.141Z" transform="translate(-1211.406 -843.995)" fill="#ff6d40"/>
  <path id="Path_30504" data-name="Path 30504" d="M1343.172,729.649l1.616,20.616s.385.846,1.077.615,1.077-1.385,1.077-1.385-1.231,1.539-1.308.154-1.769-19.155-1.769-19.155Z" transform="translate(-1317.764 -729.041)" fill="#ff6d40"/>
  <path id="Path_30505" data-name="Path 30505" d="M1670.806,826.787s-3.308.385-2.154,6a8.358,8.358,0,0,1,.846-3.385A17.891,17.891,0,0,0,1670.806,826.787Z" transform="translate(-1582.518 -808.256)" fill="#ff6d40"/>
  <path id="Path_30506" data-name="Path 30506" d="M1401.166,778.425s-.923,5.693.231,9.231a1.356,1.356,0,0,0,.692.692c.462.154-1.154-6.77-.307-9.154Z" transform="translate(-1364.688 -768.829)" fill="#ff6d40"/>
  <path id="Path_30507" data-name="Path 30507" d="M1455.6,770.984l.385,10.308s.231,1.077.769.539l-.385-9.77Z" transform="translate(-1409.286 -762.762)" fill="#ff6d40"/>
  <path id="Path_30508" data-name="Path 30508" d="M1245,792.892s-2.616,1.923-1.77,2.846a6.849,6.849,0,0,0,1.77,1.385S1243.077,795.431,1245,792.892Z" transform="translate(-1236.268 -780.612)" fill="#ff6d40"/>
  <path id="Path_30509" data-name="Path 30509" d="M1263.189,817.013s6.462,1.269,7.846,4.039,1.269,3.577,1.269,3.577-.231-4.847-2.769-6.462S1263.189,817.013,1263.189,817.013Z" transform="translate(-1252.649 -800.242)" fill="#ff6d40"/>
  <path id="Path_30510" data-name="Path 30510" d="M1626.75,809.84l-3.635,18.174,4.327-16.962Z" transform="translate(-1545.654 -794.493)" fill="#fff"/>
  <path id="Path_30511" data-name="Path 30511" d="M1307.831,741.016s1.385,20.078,3.634,22.847l-3.327-21.424Z" transform="translate(-1288.996 -738.293)" fill="#fff"/>
  <path id="Path_30512" data-name="Path 30512" d="M1484.305,772.818s-1.361,13.341.468,15.6l-.359-14.612Z" transform="translate(-1432.253 -764.271)" fill="#fff"/>
  <g id="Group_16064" data-name="Group 16064" transform="translate(29.876 11.293)">
    <path id="Path_30513" data-name="Path 30513" d="M1371.47,800.567a1.988,1.988,0,0,1-.579-.449,6.068,6.068,0,0,1-.786-.987c-.026-.04-.051-.082-.076-.124a12.483,12.483,0,0,1-1.93-4.118,12.784,12.784,0,0,1-.439-3.155c0-.161,0-.321.008-.481-.033-.537-.052-1.074-.061-1.613a4.888,4.888,0,0,1-.009-1.491c0-.051,0-.1,0-.152,0-.1,0-.206.01-.307a.4.4,0,0,0-.254.352,19.836,19.836,0,0,0,.177,6.077,19.266,19.266,0,0,0,.791,2.96,11.448,11.448,0,0,0,1.182,2.492,6.736,6.736,0,0,0,1,1.208,1.77,1.77,0,0,0,1.379.594.391.391,0,0,0,.367-.32A4.9,4.9,0,0,1,1371.47,800.567Z" transform="translate(-1367.201 -787.691)" fill="#fff"/>
  </g>
  <g id="Group_16065" data-name="Group 16065" transform="translate(1.095 8.859)">
    <path id="Path_30514" data-name="Path 30514" d="M1212.911,780.278a4.652,4.652,0,0,1,.681-2.105,5.3,5.3,0,0,1,1.314-1.732,5.471,5.471,0,0,1,3.249-1.773.316.316,0,0,0-.348-.263,5.324,5.324,0,0,0-3.452,1.618,6.87,6.87,0,0,0-1.789,3.684,5.452,5.452,0,0,0,.025,2.471.349.349,0,0,0,.3.255,5.751,5.751,0,0,1-.108-.877A4.4,4.4,0,0,1,1212.911,780.278Z" transform="translate(-1212.435 -774.405)" fill="#fff"/>
  </g>
  <g id="Group_16066" data-name="Group 16066" transform="translate(15.849 21.716)">
    <path id="Path_30515" data-name="Path 30515" d="M1293.762,846.078a7.061,7.061,0,0,0-1.414-1.875.349.349,0,0,0-.408-.067,5.587,5.587,0,0,1,1.74,3.836,4.545,4.545,0,0,1-.56,2.368,5.347,5.347,0,0,1-1.407,1.738.306.306,0,0,0,.373.1,3.259,3.259,0,0,0,1.566-1.537,4.558,4.558,0,0,0,.764-2.238A5.011,5.011,0,0,0,1293.762,846.078Z" transform="translate(-1291.712 -844.099)" fill="#fff"/>
  </g>
  <path id="Path_30516" data-name="Path 30516" d="M1561.5,776.608s-1.7,13.367-.389,15.531l.426-14.551Z" transform="translate(-1494.77 -767.363)" fill="#fff"/>
  <g id="Group_16067" data-name="Group 16067" transform="translate(88.164 14.354)">
    <path id="Path_30517" data-name="Path 30517" d="M1681.1,804.9a3.534,3.534,0,0,1,2.632.757,5.407,5.407,0,0,1,2.593,3.529.336.336,0,0,0,.155-.4,7.2,7.2,0,0,0-1.967-3.449,4.41,4.41,0,0,0-3.61-1.157.375.375,0,0,0-.26.458A.382.382,0,0,0,1681.1,804.9Z" transform="translate(-1680.629 -804.137)" fill="#fff"/>
  </g>
  <path id="Path_30518" data-name="Path 30518" d="M1374.066,881.115a42.726,42.726,0,0,0,18.266,3.534c5.537-.139,12.227-1.7,15.6-5.5,0,0,1.392-.179.184,1.239s-8.128,8.391-17.417,7.676C1382.7,887.453,1377.394,884.684,1374.066,881.115Z" transform="translate(-1342.924 -850.97)" fill="#ffbc3e"/>
  <path id="Path_30519" data-name="Path 30519" d="M1374.587,891.413a29.331,29.331,0,0,0,18.155,6.231c5.537-.139,12.625-3.663,16-7.462,0,0,1.105-.909-.1.508s-8.128,8.391-17.417,7.676C1383.223,897.751,1377.915,894.982,1374.587,891.413Z" transform="translate(-1343.348 -859.79)" fill="#ff6d40"/>
  <g id="Group_16068" data-name="Group 16068" transform="translate(41.113 34.091)">
    <path id="Path_30520" data-name="Path 30520" d="M1427.765,911.306a20.326,20.326,0,0,0,9.908.885,25.413,25.413,0,0,0,2.608-.507.186.186,0,0,0-.1-.359,22.421,22.421,0,0,1-9.565.392,16.989,16.989,0,0,1-2.754-.77c-.225-.084-.322.276-.1.359Z" transform="translate(-1427.639 -910.934)" fill="#fff"/>
  </g>
  <g id="Group_16069" data-name="Group 16069" transform="translate(65.643 30.068)">
    <path id="Path_30521" data-name="Path 30521" d="M1562.933,906.352a14.774,14.774,0,0,1,4.167,1.586,3.26,3.26,0,0,0,2.235.792s1.491-1.007-.9-2.512S1562.933,906.352,1562.933,906.352Z" transform="translate(-1562.3 -902.552)" fill="#ffbc3e"/>
    <path id="Path_30522" data-name="Path 30522" d="M1559.529,892.73a4.362,4.362,0,0,1,2.23-1.41,20.921,20.921,0,0,1,2.517-.2c.573-.144,1-1.739-.724-1.812A3.96,3.96,0,0,0,1559.529,892.73Z" transform="translate(-1559.529 -889.3)" fill="#ffbc3e"/>
  </g>
  <path id="Path_30523" data-name="Path 30523" d="M1451.1,910.158s.481.047,1.58.172c2.06.234,5.351.952,7.355,3.414,3.075,3.776,6.963,6.8,10.354,6.037,3.439-.778,5.314-5.284,1.535-9.31-3.755-3.85-12.913-1.39-12.913-1.39A33.2,33.2,0,0,1,1451.1,910.158Z" transform="translate(-1405.632 -874.776)" fill="#f9572b"/>
  <path id="Path_30524" data-name="Path 30524" d="M1456.923,915.725a26.423,26.423,0,0,1,4.307-.276,14.818,14.818,0,0,1,4.666.745c3.957,1.412,5.5,3.665,6.323,3.855.261.061.654.047.41-.564-.422-1.056-4.1-3.727-8.111-4.164A24.851,24.851,0,0,0,1456.923,915.725Z" transform="translate(-1410.365 -880.38)" fill="#fff"/>
</svg>
